<?xml version="1.0" encoding="UTF-8" standalone="no"?>
<!-- Created with Inkscape (http://www.inkscape.org/) -->

<svg
   width="72"
   height="72"
   viewBox="0 0 19.05 19.05"
   version="1.1"
   id="svg1"
   xml:space="preserve"
   inkscape:version="1.3 (0e150ed6c4, 2023-07-21)"
   sodipodi:docname="app_icon.svg"
   xmlns:inkscape="http://www.inkscape.org/namespaces/inkscape"
   xmlns:sodipodi="http://sodipodi.sourceforge.net/DTD/sodipodi-0.dtd"
   xmlns="http://www.w3.org/2000/svg"
   xmlns:svg="http://www.w3.org/2000/svg"><sodipodi:namedview
     id="namedview1"
     pagecolor="#ffffff"
     bordercolor="#000000"
     borderopacity="0.25"
     inkscape:showpageshadow="2"
     inkscape:pageopacity="0.0"
     inkscape:pagecheckerboard="0"
     inkscape:deskcolor="#d1d1d1"
     inkscape:document-units="mm"
     inkscape:zoom="5.19"
     inkscape:cx="63.680154"
     inkscape:cy="31.695568"
     inkscape:window-width="1920"
     inkscape:window-height="1051"
     inkscape:window-x="-9"
     inkscape:window-y="-9"
     inkscape:window-maximized="1"
     inkscape:current-layer="layer1" /><defs
     id="defs1" /><g
     inkscape:label="Ebene 1"
     inkscape:groupmode="layer"
     id="layer1"><rect
       style="fill:#ffffff;fill-opacity:1;stroke:#00000c;stroke-width:0.0432689;stroke-dasharray:none;stroke-opacity:1"
       id="rect42"
       width="19.006731"
       height="19.006731"
       x="0.02163445"
       y="0.02163445" /><path
       style="fill:#000000;stroke-width:0.311688"
       d="m 0,15.875002 v -3.175001 h 3.1750006 3.175 v 3.175001 3.174999 h -3.175 H 0 Z m 5.4428577,0 V 13.607144 H 3.1750006 0.9071429 v 2.267858 2.267856 h 2.2678577 2.2678571 z m -3.6285717,0 v -1.360714 h 1.3607146 1.360714 v 1.360714 1.360714 H 3.1750006 1.814286 Z m 5.4428574,1.814285 v -1.360715 h 0.453572 0.453571 v 0.453572 0.453572 h 0.453571 0.453572 v 0.453571 0.453571 h 0.453571 0.453572 v 0.453572 0.453571 H 9.5250004 9.0714294 V 18.59643 18.142858 h -0.453572 -0.453571 v 0.453572 0.453571 h -0.453571 -0.453572 z m 3.6285706,0 V 16.328572 H 9.9785724 9.0714294 v -0.45357 -0.453572 h -0.453572 -0.453571 v -0.453572 -0.45357 h -0.453571 -0.453572 v -0.453572 -0.453572 h 0.453572 0.453571 V 13.153573 12.700001 H 7.7107154 7.2571434 V 12.24643 11.792858 H 6.3500006 5.4428577 V 11.339287 10.885715 H 4.9892863 4.5357146 v 0.453572 0.453571 H 4.0821433 3.628572 V 11.339287 10.885715 H 3.1750006 2.7214289 v 0.453572 0.453571 H 2.2678576 1.814286 V 11.339287 10.885715 H 1.3607142 0.9071429 v 0.453572 0.453571 H 0.4535716 0 V 10.885715 9.9785719 H 0.4535716 0.9071429 V 9.0714289 8.1642859 H 0.4535716 0 V 7.7107147 7.257143 H 1.3607142 2.7214289 V 7.7107147 8.1642859 H 3.628572 4.5357146 V 7.7107147 7.257143 H 5.4428577 6.3500006 V 7.7107147 8.1642859 H 6.803572 7.2571434 V 5.8964287 3.6285717 h 0.453572 0.453571 V 2.7214286 1.8142857 H 7.7107154 7.2571434 V 0.9071429 0 h 2.267857 2.2678556 v 0.9071429 0.9071428 h -0.45357 -0.453572 v 0.4535716 0.4535713 h 0.453572 0.45357 V 3.6285717 4.5357143 H 10.885714 9.9785724 V 5.8964287 7.257143 H 12.7 15.421429 v 0.4535717 0.4535712 h 0.453572 0.45357 v 0.453571 0.453572 h 0.453572 0.453572 v 0.453572 0.453571 h -0.453572 -0.453572 v 0.4535711 0.453572 H 17.689285 19.05 v 0.453572 0.453571 h -1.360715 -1.360714 v 0.907143 0.907143 h 0.453572 0.453572 v 0.453572 0.453572 h 0.45357 0.453572 V 13.607144 12.700001 H 18.596429 19.05 v 0.907143 0.907144 h -0.453571 -0.453572 v 0.907142 0.907142 H 18.596429 19.05 v 1.360715 1.360714 H 18.596429 18.142857 V 18.59643 18.142858 h -0.907142 -0.907144 v 0.453572 0.453571 H 14.967857 13.607143 V 18.59643 18.142858 H 13.153571 12.7 v 0.453572 0.453571 h -0.907144 -0.907142 z m 3.628572,0 v -0.453571 h -0.453572 -0.453571 v -0.453572 -0.453572 h 1.360714 1.360714 v 0.453572 0.453572 h 0.453572 0.453572 V 16.328572 15.42143 h -1.360714 -1.360715 v -0.453572 -0.45357 h 0.907143 0.907142 v -0.453572 -0.453572 h -0.45357 -0.453572 v -0.453571 -0.453572 h -0.453572 -0.453571 v 0.453572 0.453571 h -0.453572 -0.453571 v -0.907143 -0.907143 h 0.453571 0.453572 V 11.339287 10.885715 H 14.060714 13.607143 V 10.432143 9.9785719 h 0.453571 0.453572 v -0.453571 -0.453572 h 0.453571 0.453572 v 0.453572 0.453571 h 0.453572 0.45357 v -0.453571 -0.453572 h -0.45357 -0.453572 v -0.453572 -0.453571 h -0.453572 -0.453571 v 0.453571 0.453572 H 14.060714 13.607143 V 8.6178569 8.1642859 H 13.153571 12.7 v 1.360715 1.3607141 h -0.453572 -0.453572 v 0.453572 0.453571 h -0.45357 -0.453572 V 10.885715 9.9785719 h 0.453572 0.45357 V 9.0714289 8.1642859 H 9.9785724 8.1642864 v 0.453571 0.453572 H 7.2571434 6.3500006 V 8.6178569 8.1642859 H 5.4428577 4.5357146 v 0.453571 0.453572 h 0.9071431 0.9071429 v 0.453572 0.453571 H 5.896429 5.4428577 v 0.4535711 0.453572 H 5.896429 6.3500006 V 10.432143 9.9785719 h 0.9071428 0.907143 v 1.3607151 1.360714 h 0.907143 0.907143 v 0.453572 0.453571 h 0.4535696 0.453572 v -0.453571 -0.453572 h 0.453572 0.45357 V 12.24643 11.792858 H 12.246428 12.7 v 0.907143 0.907143 h 0.453571 0.453572 v 0.453572 0.453572 H 13.153571 12.7 v 1.360714 1.360714 h 0.453571 0.453572 v 0.453571 0.453571 h 0.453571 0.453572 z M 9.0714294,10.885715 V 9.9785719 h -0.453572 -0.453571 v -0.453571 -0.453572 h 0.453571 0.453572 v 0.453572 0.453571 h 0.453571 0.453572 v -0.453571 -0.453572 h 0.4535696 0.453572 v 0.453572 0.453571 H 10.432142 9.9785724 v 0.9071431 0.907143 H 9.5250004 9.0714294 Z M 12.7,11.339287 v -0.453572 h 0.453571 0.453572 v 0.453572 0.453571 H 13.153571 12.7 Z m -0.907144,4.535715 V 15.42143 h -0.45357 -0.453572 v -0.453572 -0.45357 H 10.432142 9.9785724 v 0.45357 0.453572 h 0.4535696 0.453572 v 0.453572 0.45357 h 0.453572 0.45357 z M 9.0714294,14.060716 v -0.453572 h -0.453572 -0.453571 v 0.453572 0.453572 h 0.453571 0.453572 z M 2.7214289,9.9785719 V 9.0714289 H 2.2678576 1.814286 v 0.907143 0.9071431 H 2.2678576 2.7214289 Z M 4.5357146,10.432143 V 9.9785719 H 4.0821433 3.628572 v 0.4535711 0.453572 H 4.0821433 4.5357146 Z M 9.0714294,5.4428574 V 4.5357143 h 0.453571 0.453572 V 3.6285717 2.7214286 H 9.5250004 9.0714294 V 3.175 3.6285717 h -0.453572 -0.453571 v 1.3607142 1.3607144 h 0.453571 0.453572 z M 9.9785724,1.3607142 V 0.9071429 h -0.453572 -0.453571 v 0.4535713 0.4535715 h 0.453571 0.453572 z M 17.235715,7.7107147 V 7.257143 H 18.142857 19.05 V 7.7107147 8.1642859 H 18.142857 17.235715 Z M 0,3.175 V 0 h 3.1750006 3.175 v 3.175 3.1750003 h -3.175 H 0 Z m 5.4428577,0 V 0.9071429 H 3.1750006 0.9071429 V 3.175 5.4428574 h 2.2678577 2.2678571 z m -3.6285717,0 V 1.8142857 h 1.3607146 1.360714 V 3.175 4.5357143 H 3.1750006 1.814286 Z m 9.071428,2.7214287 V 5.4428574 h 0.453572 0.45357 v 0.4535713 0.4535716 h -0.45357 -0.453572 z M 12.7,3.175 V 0 H 15.875001 19.05 V 3.175 6.3500003 H 15.875001 12.7 Z m 5.442857,0 V 0.9071429 H 15.875001 13.607143 V 3.175 5.4428574 h 2.267858 2.267856 z m -3.628571,0 V 1.8142857 h 1.360715 1.360714 V 3.175 4.5357143 h -1.360714 -1.360715 z"
       id="path42" /></g></svg>
