<?xml version="1.0" encoding="UTF-8" standalone="no"?>
<!-- Created with Inkscape (http://www.inkscape.org/) -->

<svg
   width="24"
   height="24"
   viewBox="0 0 6.35 6.35"
   version="1.1"
   id="svg1"
   xml:space="preserve"
   inkscape:version="1.3 (0e150ed6c4, 2023-07-21)"
   sodipodi:docname="tile_service_icon.svg"
   xmlns:inkscape="http://www.inkscape.org/namespaces/inkscape"
   xmlns:sodipodi="http://sodipodi.sourceforge.net/DTD/sodipodi-0.dtd"
   xmlns="http://www.w3.org/2000/svg"
   xmlns:svg="http://www.w3.org/2000/svg"><sodipodi:namedview
     id="namedview1"
     pagecolor="#808080"
     bordercolor="#000000"
     borderopacity="0.25"
     inkscape:showpageshadow="2"
     inkscape:pageopacity="0.0"
     inkscape:pagecheckerboard="0"
     inkscape:deskcolor="#d1d1d1"
     inkscape:document-units="mm"
     inkscape:zoom="5.19"
     inkscape:cx="63.680154"
     inkscape:cy="31.50289"
     inkscape:window-width="1920"
     inkscape:window-height="1051"
     inkscape:window-x="-9"
     inkscape:window-y="-9"
     inkscape:window-maximized="1"
     inkscape:current-layer="layer1" /><defs
     id="defs1" /><g
     inkscape:label="Ebene 1"
     inkscape:groupmode="layer"
     id="layer1"><path
       style="fill:#ffffff;stroke-width:0.103896"
       d="m 0,5.2916669 v -1.058333 h 1.058333 1.058334 v 1.058333 1.058333 H 1.058333 0 Z m 1.814286,0 V 4.5357149 H 1.058333 0.302381 v 0.755952 0.755952 h 0.755952 0.755953 z m -1.209524,0 v -0.453571 h 0.453571 0.453572 v 0.453571 0.453572 H 1.058333 0.604762 Z m 1.814286,0.604762 v -0.453572 h 0.15119 0.151191 v 0.151191 0.151191 h 0.15119 0.151191 v 0.15119 0.15119 H 3.175 3.326191 v 0.151191 0.15119 H 3.175 3.02381 v -0.15119 -0.151191 H 2.872619 2.721429 v 0.151191 0.15119 H 2.570238 2.419048 Z m 1.209523,0 V 5.4428569 H 3.326191 3.02381 v -0.15119 -0.15119 H 2.872619 2.721429 v -0.151191 -0.15119 H 2.570238 2.419048 v -0.151191 -0.15119 h 0.15119 0.151191 v -0.151191 -0.15119 H 2.570238 2.419048 v -0.151191 -0.15119 H 2.116667 1.814286 v -0.151191 -0.15119 H 1.663095 1.511905 v 0.15119 0.151191 H 1.360714 1.209524 v -0.151191 -0.15119 H 1.058333 0.907143 v 0.15119 0.151191 H 0.755952 0.604762 v -0.151191 -0.15119 H 0.453571 0.302381 v 0.15119 0.151191 H 0.15119 0 V 3.6285719 3.3261909 H 0.15119 0.302381 V 3.0238099 2.7214289 H 0.15119 0 v -0.151191 -0.15119 h 0.453571 0.453572 v 0.15119 0.151191 h 0.302381 0.302381 v -0.151191 -0.15119 h 0.302381 0.302381 v 0.15119 0.151191 h 0.15119 0.151191 v -0.755953 -0.755952 h 0.15119 0.151191 V 0.9071429 0.6047619 H 2.570238 2.419048 V 0.302381 0 H 3.175 3.930952 V 0.302381 0.6047619 H 3.779762 3.628571 v 0.1511905 0.1511905 h 0.151191 0.15119 v 0.302381 0.302381 H 3.628571 3.326191 v 0.453571 0.453572 h 0.907142 0.907143 v 0.15119 0.151191 h 0.151191 0.15119 v 0.15119 0.151191 h 0.151191 0.15119 v 0.15119 0.151191 H 5.594048 5.442857 v 0.15119 0.151191 H 5.896428 6.35 v 0.15119 0.151191 H 5.896428 5.442857 v 0.302381 0.302381 h 0.151191 0.15119 v 0.15119 0.151191 h 0.15119 0.151191 V 4.5357149 4.2333339 H 6.19881 6.35 v 0.302381 0.302381 H 6.19881 6.047619 v 0.302381 0.30238 H 6.19881 6.35 v 0.453572 0.453571 H 6.19881 6.047619 v -0.15119 -0.151191 H 5.745238 5.442857 v 0.151191 0.15119 H 4.989286 4.535714 v -0.15119 -0.151191 H 4.384524 4.233333 v 0.151191 0.15119 H 3.930952 3.628571 Z m 1.209524,0 v -0.15119 H 4.686905 4.535714 v -0.151191 -0.151191 h 0.453572 0.453571 v 0.151191 0.151191 h 0.151191 0.15119 v -0.302382 -0.30238 H 5.291667 4.838095 v -0.151191 -0.15119 h 0.302381 0.302381 v -0.151191 -0.15119 H 5.291667 5.140476 v -0.151191 -0.15119 H 4.989286 4.838095 v 0.15119 0.151191 H 4.686905 4.535714 v -0.302381 -0.302381 h 0.151191 0.15119 v -0.151191 -0.15119 H 4.686905 4.535714 v -0.151191 -0.15119 h 0.151191 0.15119 v -0.151191 -0.15119 h 0.151191 0.15119 v 0.15119 0.151191 h 0.151191 0.15119 v -0.151191 -0.15119 H 5.291667 5.140476 v -0.151191 -0.15119 H 4.989286 4.838095 v 0.15119 0.151191 H 4.686905 4.535714 v -0.151191 -0.15119 H 4.384524 4.233333 v 0.453571 0.453572 H 4.082143 3.930952 v 0.15119 0.151191 H 3.779762 3.628571 v -0.302381 -0.302381 h 0.151191 0.15119 V 3.0238099 2.7214289 H 3.326191 2.721429 v 0.15119 0.151191 H 2.419048 2.116667 v -0.151191 -0.15119 H 1.814286 1.511905 v 0.15119 0.151191 h 0.302381 0.302381 v 0.15119 0.151191 H 1.965476 1.814286 v 0.15119 0.151191 h 0.15119 0.151191 v -0.151191 -0.15119 h 0.302381 0.302381 v 0.453571 0.453572 H 3.02381 3.326191 v 0.15119 0.151191 h 0.15119 0.15119 v -0.151191 -0.15119 h 0.151191 0.15119 v -0.151191 -0.15119 h 0.151191 0.15119 v 0.302381 0.302381 h 0.151191 0.15119 v 0.15119 0.151191 H 4.384524 4.233333 v 0.453571 0.453572 h 0.151191 0.15119 v 0.15119 0.15119 h 0.151191 0.15119 z M 3.02381,3.6285719 V 3.3261909 H 2.872619 2.721429 v -0.151191 -0.15119 h 0.15119 0.151191 v 0.15119 0.151191 H 3.175 3.326191 v -0.151191 -0.15119 h 0.15119 0.15119 v 0.15119 0.151191 h -0.15119 -0.15119 v 0.302381 0.302381 H 3.175 3.02381 Z m 1.209523,0.15119 v -0.15119 h 0.151191 0.15119 v 0.15119 0.151191 H 4.384524 4.233333 Z m -0.302381,1.511905 v -0.15119 H 3.779762 3.628571 v -0.151191 -0.15119 h -0.15119 -0.15119 v 0.15119 0.151191 h 0.15119 0.15119 v 0.15119 0.15119 h 0.151191 0.15119 z M 3.02381,4.6869049 v -0.15119 H 2.872619 2.721429 v 0.15119 0.151191 H 2.872619 3.02381 Z M 0.907143,3.3261909 V 3.0238099 H 0.755952 0.604762 v 0.302381 0.302381 h 0.15119 0.151191 z m 0.604762,0.15119 v -0.15119 H 1.360714 1.209524 v 0.15119 0.151191 h 0.15119 0.151191 z M 3.02381,1.8142859 V 1.5119049 H 3.175 3.326191 V 1.2095239 0.9071429 H 3.175 3.02381 V 1.0583333 1.2095239 H 2.872619 2.721429 v 0.453571 0.453572 H 2.872619 3.02381 Z M 3.326191,0.4535714 V 0.302381 H 3.175 3.02381 V 0.4535714 0.6047619 H 3.175 3.326191 Z m 2.419047,2.1166665 v -0.15119 H 6.047619 6.35 v 0.15119 0.151191 H 6.047619 5.745238 Z M 0,1.0583333 V 0 H 1.058333 2.116667 V 1.0583333 2.1166669 H 1.058333 0 Z m 1.814286,0 V 0.302381 H 1.058333 0.302381 v 0.7559523 0.7559526 h 0.755952 0.755953 z m -1.209524,0 V 0.6047619 H 1.058333 1.511905 V 1.0583333 1.5119049 H 1.058333 0.604762 Z m 3.023809,0.9071426 v -0.15119 h 0.151191 0.15119 v 0.15119 0.151191 H 3.779762 3.628571 Z M 4.233333,1.0583333 V 0 H 5.291667 6.35 V 1.0583333 2.1166669 H 5.291667 4.233333 Z m 1.814286,0 V 0.302381 H 5.291667 4.535714 v 0.7559523 0.7559526 h 0.755953 0.755952 z m -1.209524,0 V 0.6047619 H 5.291667 5.745238 V 1.0583333 1.5119049 H 5.291667 4.838095 Z"
       id="path42" /></g></svg>
